<?xml version="1.0" standalone="no"?>
<!DOCTYPE svg PUBLIC "-//W3C//DTD SVG 20010904//EN"
 "http://www.w3.org/TR/2001/REC-SVG-20010904/DTD/svg10.dtd">
<svg version="1.0" xmlns="http://www.w3.org/2000/svg"
 width="150.000000pt" height="150.000000pt" viewBox="0 0 150.000000 150.000000"
 preserveAspectRatio="xMidYMid meet">

<g transform="translate(0.000000,150.000000) scale(0.100000,-0.100000)"
fill="#000000" stroke="none">
<path d="M609 1476 c-192 -41 -369 -161 -474 -320 -88 -135 -134 -331 -114
-481 41 -306 234 -535 529 -626 108 -34 293 -34 400 0 299 93 490 318 530 625
9 61 8 105 0 165 -41 302 -235 530 -525 621 -90 28 -253 35 -346 16z m355 -51
c233 -76 409 -263 471 -500 21 -80 21 -260 0 -340 -63 -239 -231 -419 -470
-501 -72 -25 -94 -28 -215 -28 -122 0 -143 2 -214 27 -240 84 -412 269 -470
508 -21 85 -21 243 0 328 67 275 293 482 584 535 14 3 72 3 130 1 79 -3 125
-10 184 -30z"/>
<path d="M634 1419 c-23 -26 -9 -53 30 -57 48 -6 72 31 40 62 -21 22 -47 20
-70 -5z m61 -19 c0 -20 -5 -25 -25 -25 -28 0 -41 32 -18 46 23 15 43 5 43 -21z"/>
<path d="M747 1433 c-4 -3 -6 -22 -6 -42 1 -23 3 -28 6 -13 5 24 23 31 23 8 0
-24 21 -30 27 -7 7 28 20 27 26 -1 3 -13 4 -5 4 16 -2 47 -21 58 -32 19 l-8
-28 -10 28 c-11 27 -18 32 -30 20z"/>
<path d="M860 1418 c0 -7 -3 -23 -6 -35 -4 -14 -2 -23 5 -23 6 0 11 7 11 15 0
9 9 15 21 15 14 0 19 5 17 18 -4 20 -48 30 -48 10z m35 -8 c3 -5 -1 -10 -10
-10 -9 0 -13 5 -10 10 3 6 8 10 10 10 2 0 7 -4 10 -10z"/>
<path d="M542 1404 c-46 -32 -8 -89 44 -66 14 7 24 15 21 19 -4 3 -13 0 -22
-7 -21 -18 -47 -5 -43 22 2 17 11 24 31 26 15 2 25 8 22 13 -9 13 -28 11 -53
-7z"/>
<path d="M927 1383 c-7 -36 1 -53 24 -53 20 0 39 29 38 57 0 12 -6 6 -15 -14
-19 -45 -38 -43 -30 2 4 20 3 35 -2 35 -5 0 -12 -12 -15 -27z"/>
<path d="M1014 1375 c3 -8 1 -26 -4 -40 -6 -16 -6 -25 0 -25 5 0 12 11 16 24
3 14 13 26 22 28 11 2 7 7 -12 16 -25 11 -28 11 -22 -3z"/>
<path d="M1056 1321 c-11 -21 -12 -31 -3 -40 16 -16 32 -14 18 2 -14 17 -4 28
17 20 14 -5 15 -3 5 8 -17 17 -17 37 -1 21 7 -7 17 -12 23 -12 11 1 -24 30
-37 30 -4 0 -14 -13 -22 -29z"/>
<path d="M380 1330 c-12 -7 -11 -13 10 -34 24 -26 52 -37 31 -13 -8 10 -7 17
2 26 10 11 7 12 -13 6 -22 -7 -23 -6 -11 9 15 17 5 21 -19 6z"/>
<path d="M596 1325 c-145 -40 -300 -165 -365 -294 -122 -241 -81 -504 108
-692 118 -117 244 -169 411 -169 168 0 293 52 412 170 237 236 237 594 -1 831
-81 80 -160 127 -261 154 -68 18 -237 18 -304 0z m339 -60 c221 -83 355 -275
355 -509 0 -157 -50 -276 -160 -386 -212 -210 -548 -210 -760 0 -110 110 -160
229 -160 386 0 109 22 190 75 279 80 132 215 227 365 256 77 14 211 2 285 -26z"/>
<path d="M620 1251 c-207 -55 -365 -230 -389 -433 l-7 -58 28 0 c26 0 28 -3
28 -39 l0 -40 40 36 c54 49 54 81 0 117 -39 26 -40 26 -40 5 0 -15 -4 -19 -16
-15 -9 3 -18 6 -20 6 -2 0 -4 5 -4 11 0 5 13 15 30 20 34 12 41 44 13 64 -21
15 -9 35 22 35 28 0 43 33 25 55 -17 20 -2 38 25 31 29 -7 48 15 40 47 -8 29
9 44 30 27 23 -19 57 5 49 35 -4 18 -1 27 11 31 9 4 20 1 25 -6 12 -19 45 -7
48 18 5 30 29 39 46 17 17 -23 50 -15 54 13 4 28 38 30 45 2 7 -26 47 -27 54
-1 8 31 31 33 45 4 17 -36 32 -38 57 -12 22 24 36 19 43 -15 5 -30 34 -43 55
-24 24 21 44 12 37 -16 -9 -37 19 -52 59 -32 17 8 26 16 19 16 -7 0 -28 11
-46 25 -69 53 -199 95 -291 94 -27 -1 -79 -8 -115 -18z"/>
<path d="M1148 853 c-49 -33 -49 -59 2 -108 l40 -39 0 87 c0 48 -1 87 -2 86
-2 0 -20 -12 -40 -26z"/>
<path d="M580 624 l0 -181 40 -32 40 -32 0 173 0 174 -40 39 -40 39 0 -180z"/>
<path d="M1117 1281 c-21 -36 -22 -47 -2 -31 13 10 15 9 16 -11 0 -16 3 -19 6
-9 4 8 15 21 25 29 18 12 18 14 2 32 -23 25 -27 24 -47 -10z m43 -1 c0 -5 -4
-10 -10 -10 -5 0 -10 5 -10 10 0 6 5 10 10 10 6 0 10 -4 10 -10z"/>
<path d="M328 1293 c-22 -5 -33 -40 -18 -58 27 -32 86 -8 78 31 -3 19 -34 32
-60 27z m47 -38 c0 -25 -37 -32 -54 -11 -18 21 -4 38 27 34 19 -2 27 -9 27
-23z"/>
<path d="M1260 1155 c0 -28 -9 -31 -29 -12 -11 10 -13 9 -9 -3 3 -8 14 -16 26
-18 18 -3 22 2 22 22 0 27 15 35 23 14 3 -8 6 -6 6 5 1 11 -6 17 -19 17 -15 0
-20 -7 -20 -25z"/>
<path d="M215 1136 c31 -27 46 -29 53 -8 2 7 -2 10 -11 6 -9 -3 -28 2 -44 11
l-28 17 30 -26z"/>
<path d="M1286 1109 c-30 -30 -24 -39 9 -15 11 8 25 11 33 8 12 -4 12 -1 3 16
-7 12 -13 21 -14 21 -1 -1 -15 -14 -31 -30z"/>
<path d="M162 1108 c-30 -30 5 -77 47 -63 27 8 32 29 15 54 -17 23 -44 27 -62
9z m56 -26 c4 -28 -24 -40 -45 -19 -21 21 -9 49 19 45 15 -2 24 -11 26 -26z"/>
<path d="M1309 1062 c-31 -26 -20 -57 19 -47 15 3 32 11 37 17 10 11 -12 8
-47 -7 -13 -5 -18 -2 -18 9 0 9 4 16 8 16 13 0 48 29 36 30 -7 0 -22 -8 -35
-18z"/>
<path d="M122 1028 c-29 -29 -2 -72 40 -66 42 6 32 78 -11 78 -9 0 -22 -5 -29
-12z m48 -13 c15 -18 6 -45 -13 -45 -20 0 -40 27 -33 45 7 19 30 19 46 0z"/>
<path d="M1344 992 c-27 -15 -30 -20 -21 -39 11 -25 45 -31 65 -11 15 15 15
30 0 50 -12 16 -15 15 -44 0z m36 -22 c0 -25 -27 -37 -43 -21 -9 10 -8 16 7
27 27 19 36 18 36 -6z"/>
<path d="M103 946 c24 -18 22 -40 -3 -33 -11 3 -20 2 -20 -3 0 -4 19 -12 43
-18 35 -9 39 -9 25 2 -25 18 -23 39 2 31 34 -11 22 4 -16 20 -44 18 -55 19
-31 1z"/>
<path d="M1361 909 c-13 -5 -22 -12 -19 -15 3 -3 21 2 39 10 37 16 19 21 -20
5z"/>
<path d="M1383 877 c-25 -7 -33 -15 -32 -31 1 -17 2 -18 6 -3 2 9 11 17 18 17
7 0 16 -8 18 -17 3 -13 5 -10 6 7 2 24 2 24 16 6 11 -14 15 -16 15 -5 0 28
-14 36 -47 26z"/>
<path d="M75 869 c-13 -20 5 -59 30 -65 32 -8 45 2 44 34 -2 25 -2 25 -6 4 -3
-13 -11 -26 -19 -29 -23 -8 -46 17 -39 44 6 24 1 30 -10 12z"/>
<path d="M1398 801 c-16 -26 -25 -27 -31 -3 -4 13 -5 12 -6 -5 -1 -31 15 -37
36 -13 18 20 39 28 28 10 -3 -5 -1 -10 5 -10 15 0 9 32 -7 37 -7 3 -18 -5 -25
-16z"/>
<path d="M66 782 c-14 -22 11 -39 35 -24 21 13 43 7 34 -9 -4 -5 -1 -9 4 -9
17 0 13 30 -5 37 -9 3 -25 1 -35 -5 -14 -9 -18 -8 -21 6 -3 13 -5 14 -12 4z"/>
<path d="M920 170 c0 -5 9 -10 21 -10 11 0 17 5 14 10 -3 6 -13 10 -21 10 -8
0 -14 -4 -14 -10z"/>
<path d="M575 160 c4 -6 11 -8 16 -5 14 9 11 15 -7 15 -8 0 -12 -5 -9 -10z"/>
<path d="M656 134 c-19 -19 -20 -36 -4 -52 13 -13 68 -17 68 -4 0 4 -12 8 -27
7 -22 0 -29 5 -31 23 -3 22 4 26 43 23 17 -2 17 0 5 8 -21 15 -36 13 -54 -5z"/>
<path d="M752 138 c-17 -17 -15 -55 4 -62 24 -9 52 -7 59 4 4 7 -2 9 -17 5
-33 -8 -56 18 -37 41 7 8 21 13 31 11 10 -3 18 -1 18 4 0 13 -44 11 -58 -3z"/>
<path d="M838 110 c5 -52 19 -52 24 0 3 31 0 40 -12 40 -12 0 -15 -9 -12 -40z"/>
<path d="M500 125 c0 -7 8 -15 18 -18 9 -2 25 -8 35 -12 12 -5 16 -3 12 7 -8
20 -65 41 -65 23z"/>
<path d="M988 128 c-33 -12 -38 -32 -5 -23 23 8 58 36 42 34 -6 0 -22 -5 -37
-11z"/>
</g>
</svg>
